<svg id="github" xmlns="http://www.w3.org/2000/svg" width="48" height="48" viewBox="0 0 48 48">
  <path id="Path_2235" data-name="Path 2235" d="M24,0C10.747,0,0,11.017,0,24.608a24.566,24.566,0,0,0,16.413,23.35c1.2.228,1.64-.534,1.64-1.184,0-.587-.022-2.525-.033-4.581-6.677,1.489-8.086-2.9-8.086-2.9-1.092-2.844-2.665-3.6-2.665-3.6-2.178-1.527.164-1.5.164-1.5a5.06,5.06,0,0,1,3.679,2.536c2.141,3.762,5.615,2.674,6.984,2.046a5.291,5.291,0,0,1,1.524-3.291C14.29,34.861,8.686,32.751,8.686,23.322a9.658,9.658,0,0,1,2.473-6.6,9.05,9.05,0,0,1,.233-6.512s2.015-.661,6.6,2.522a22.224,22.224,0,0,1,12.02,0c4.581-3.184,6.593-2.522,6.593-2.522a9.038,9.038,0,0,1,.235,6.512,9.639,9.639,0,0,1,2.47,6.6c0,9.451-5.614,11.532-10.959,12.142a5.962,5.962,0,0,1,1.628,4.557c0,3.292-.028,5.942-.028,6.753,0,.655.432,1.422,1.649,1.181A24.563,24.563,0,0,0,48,24.608C48,11.017,37.255,0,24,0"/>
  <path id="Path_2236" data-name="Path 2236" d="M9.161,35.162c-.053.121-.24.157-.411.074s-.271-.244-.215-.366.239-.159.413-.076.273.246.213.368" fill="#161514"/>
  <path id="Path_2237" data-name="Path 2237" d="M10.131,36.263c-.114.108-.338.058-.489-.113a.377.377,0,0,1-.07-.506c.118-.108.334-.057.491.112s.187.4.068.506" fill="#161514"/>
  <path id="Path_2238" data-name="Path 2238" d="M11.076,37.666c-.147.1-.387.006-.535-.21s-.147-.477,0-.581.385-.01.536.2.146.48,0,.586" fill="#161514"/>
  <path id="Path_2239" data-name="Path 2239" d="M12.37,39.022c-.131.147-.411.108-.616-.093a.473.473,0,0,1-.136-.623c.133-.148.414-.106.62.093s.271.477.131.623" fill="#161514"/>
  <path id="Path_2240" data-name="Path 2240" d="M14.155,39.809c-.058.191-.327.278-.6.2s-.448-.307-.394-.5.327-.282.6-.2.448.305.392.5" fill="#161514"/>
  <path id="Path_2241" data-name="Path 2241" d="M16.115,39.955c.007.2-.223.368-.508.371s-.518-.156-.521-.354.225-.368.511-.373.518.156.518.355" fill="#161514"/>
  <path id="Path_2242" data-name="Path 2242" d="M17.94,39.639c.034.2-.164.4-.447.451s-.535-.069-.571-.264.167-.4.445-.454.537.068.573.267" fill="#161514"/>
</svg>
