<svg xmlns="http://www.w3.org/2000/svg" xmlns:xlink="http://www.w3.org/1999/xlink" width="76" height="76" viewBox="0 0 76 76">
  <defs>
    <clipPath id="clip-path">
      <rect id="Rectangle_95" data-name="Rectangle 95" width="76" height="76" transform="translate(0 0.148)" fill="#fff"/>
    </clipPath>
  </defs>
  <g id="RXC_logo" transform="translate(0 -0.148)" clip-path="url(#clip-path)">
    <rect id="Rectangle_93" data-name="Rectangle 93" width="76" height="76" transform="translate(0 0.148)" fill="#fff"/>
    <rect id="Rectangle_94" data-name="Rectangle 94" width="79" height="82" transform="translate(-2 0.148)" fill="#eefd4e"/>
    <path id="Path_2232" data-name="Path 2232" d="M86.88,137.666v1.069H80.926c-.153-2.7-.153-2.137-1.934-9.516-2.035-8.448-2.29-8.6-3.766-8.6h-.1V135.63c0,1.527.1,1.577,2.443,2.036v1.069H68v-1.069c2.341-.458,2.443-.509,2.443-2.036V103.672c0-1.527-.1-1.578-2.443-2.036v-1.069h8.956c5.5,0,8.091,3.308,8.091,8.956,0,6.616-3.1,9.923-7.175,10.483,2.748.255,3.359,1.12,5.6,8.854C85.964,137.411,85.709,137.106,86.88,137.666Zm-6.768-27.429c0-5.75-1.17-8.549-3.155-8.549-1.323,0-1.832.56-1.832,3.664v13.943h.865C78.483,119.295,80.111,116.9,80.111,110.237Z" transform="translate(-55.109 -81.451)"/>
    <path id="Path_2233" data-name="Path 2233" d="M176.932,123.926v1.069h-8.956v-1.069c2.9-.305,3.053-.254,1.832-3l-2.646-5.9-2.29,5.9c-1.069,2.8-.814,2.7,1.323,3v1.069h-6.158v-1.069c1.832-.458,1.679-.712,2.85-3l3.715-7.175-4.071-9.109c-1.018-2.29-1.221-2.494-2.6-3v-1.069h8.956v1.069c-3.206.305-3.053.255-1.832,3l2.8,6.259L172,104.639c.967-2.8.814-2.7-1.323-3v-1.069h6.157v1.069c-1.832.458-1.781.713-2.85,3l-3.562,7.532,3.918,8.753C175.354,123.214,175.557,123.417,176.932,123.926Z" transform="translate(-129.615 -81.451)"/>
    <path id="Path_2234" data-name="Path 2234" d="M257.656,116.612c0-13.333,3.308-19.8,9.007-19.8A7.011,7.011,0,0,1,271.65,98.8v10.127h-.509c-3.1-9.058-3.766-10.992-5.394-10.992-2.29,0-3.1,5.9-3.1,18.32,0,10.636,1.832,18.931,3.918,18.931,1.272,0,1.577-1.018,4.58-10.89h.509v10.025a7.332,7.332,0,0,1-4.987,1.985C260.964,136.306,257.656,130.352,257.656,116.612Z" transform="translate(-208.81 -78.411)"/>
  </g>
</svg>
